# xmcd CD database file
#
# Track frame offsets:
#	150
#	17821
#	34900
#	53189
#	70917
#	94896
#	110487
#	128129
#	145551
#	159827
#	189341
#
# Disc length: 2964 seconds
#
# Revision: 0
# Processed by: cddbd v1.5.2PL0 Copyright (c) Steve Scherf et al.
# Submitted via: CDex 1.51
#
DISCID=8e0b920b
DTITLE=War - Greatest Hits
DYEAR=1976
DGENRE=Jazz
TTITLE0=All Day Music
TTITLE1=Slippin' Into Darkness
TTITLE2=The World Is A Ghetto
TTITLE3=The Cisco Kid
TTITLE4=Gypsy Man
TTITLE5=Me And Baby Brother
TTITLE6=Southern Part Of Texas
TTITLE7=Why Can't We Be Friends?
TTITLE8=Low Rider
TTITLE9=Summer
TTITLE10=Four Cornered Room
EXTD=YEAR: 1976
EXTT0=
EXTT1=
EXTT2=
EXTT3=
EXTT4=
EXTT5=
EXTT6=
EXTT7=
EXTT8=
EXTT9=
EXTT10=
PLAYORDER=
